<svg width="247" height="74" viewBox="0 0 247 74" fill="none" xmlns="http://www.w3.org/2000/svg">
<path d="M0.343508 31.2202V31.2532L0.336292 31.2965C0.327008 31.3564 0.317723 31.4172 0.30947 31.4781V31.4884C0.30947 31.4997 0.30947 31.5121 0.30947 31.5235C0.30947 31.5596 0.299155 31.5947 0.295028 31.6266L0.280587 31.7215V31.738V31.7659V31.7803V31.7948V31.802V31.8309V31.8525V31.867C0.266145 31.9815 0.250672 32.0981 0.23623 32.2156C0.221789 32.3332 0.212501 32.422 0.200122 32.5251C0.200122 32.5654 0.190838 32.6045 0.186711 32.6448V32.6561C0.17227 32.782 0.158866 32.9109 0.145456 33.0368C0.136172 33.1306 0.12895 33.2276 0.118635 33.3235V33.3328L0.109348 33.4277C0.109348 33.4649 0.103156 33.503 0.100061 33.5402C0.0969664 33.5773 0.0928459 33.6196 0.0897512 33.6598C0.0897512 33.6805 0.0897512 33.7011 0.0897512 33.7217C0.0897512 33.7424 0.0845901 33.7826 0.0814954 33.8135L0.0742785 33.928V33.9817C0.0629314 34.1116 0.0536469 34.2478 0.046426 34.4036V34.4129C0.046426 34.4789 0.0392029 34.5459 0.0361083 34.612C0.0330136 34.678 0.0278536 34.7512 0.0257905 34.8183V34.8461C0.0257905 34.8544 0.0257905 34.8616 0.0257905 34.8688C0.0257905 34.876 0.0257905 34.8998 0.0257905 34.9163V34.941V34.9627C0.0257905 35.0411 0.0185747 35.1195 0.0165116 35.1979C0.0165116 35.2309 0.0165116 35.2639 0.0165116 35.301C0.0113538 35.4444 0.00722593 35.5785 0.00516282 35.7137C0.00516282 35.7343 0.00516282 35.757 0.00516282 35.7797V35.8426C0.00516282 35.9561 0 36.0665 0 36.1799V36.3862C0 36.4203 0 36.4543 0 36.4894C0 36.5245 0 36.5379 0 36.5626C0 36.5874 0 36.6111 0 36.6348C0 36.6586 0 36.7019 0 36.738V36.8494V36.9433C0.0999551 43.5672 2.80137 49.886 7.52081 54.535C12.2402 59.184 18.599 61.79 25.2236 61.7904C26.2775 61.789 27.3303 61.7225 28.3761 61.5913C28.8475 61.5325 29.3168 61.4665 29.7831 61.385C25.0306 58.5016 21.2011 54.3202 18.7454 49.3333C18.6 49.0362 18.4607 48.7371 18.3256 48.4369C18.3112 48.4039 18.2947 48.3719 18.2792 48.3389C16.26 43.779 15.4491 38.776 15.9246 33.8118C16.4001 28.8475 18.1461 24.0894 20.9942 19.9958C21.7712 18.8833 22.6246 17.8261 23.5484 16.832C28.0524 11.9879 34.0762 8.82798 40.6217 7.87569C47.1673 6.9234 53.8418 8.23595 59.5394 11.5959C59.5374 11.5931 59.535 11.5906 59.5322 11.5886L59.4084 11.4669C59.3537 11.4133 59.297 11.3638 59.2413 11.307L59.1897 11.2575L59.1763 11.2462V11.241L59.168 11.2317C59.1206 11.1863 59.0649 11.1368 59.0153 11.0894C58.9658 11.0419 58.9122 10.9862 58.8534 10.9377L58.8472 10.9305L58.842 10.9243L58.8286 10.913L58.8008 10.8872C58.7389 10.8284 58.678 10.7727 58.6161 10.717L58.6048 10.7056L58.5233 10.6324L58.4831 10.5963C58.3933 10.5148 58.3046 10.4343 58.2169 10.3559C58.1292 10.2775 58.0168 10.1806 57.9198 10.096L57.8239 10.0145C57.7568 9.95672 57.6908 9.89896 57.6176 9.84119L57.4814 9.72772L57.4082 9.66583L57.3535 9.62147L57.3256 9.59774C57.2442 9.52966 57.1668 9.46571 57.0884 9.40381L57.077 9.3935H57.0719L57.0647 9.38731L57.0554 9.38009C56.9966 9.33057 56.9368 9.28415 56.878 9.2367L56.8728 9.23154C56.684 9.07887 56.486 8.92208 56.2889 8.77353H56.2838C56.2312 8.73124 56.1806 8.69204 56.1239 8.65077L56.0589 8.60126L56.0197 8.57135L55.9929 8.55071L55.9846 8.54453L55.9774 8.53937H55.9723L55.9619 8.53318L55.8516 8.45065L55.8113 8.42074L55.6607 8.30933L55.6133 8.27529L55.5277 8.2134L55.4678 8.17007C55.409 8.12572 55.3492 8.08445 55.2894 8.04216L55.2471 8.01121L55.2306 7.99987L55.2151 7.98852L54.7777 7.67905H54.7715C54.7055 7.63366 54.6405 7.58827 54.5735 7.54392L54.526 7.51091H54.5209C54.4177 7.44695 54.3238 7.38093 54.2238 7.31594L54.2073 7.30562L54.2 7.30047L54.1907 7.29531L54.1278 7.25405L53.9143 7.11582L53.903 7.1086L53.8926 7.10138C53.7895 7.03123 53.6791 6.96522 53.5698 6.89507L53.5584 6.88888L53.544 6.8796C53.4346 6.80945 53.3232 6.74033 53.2108 6.67328L53.0344 6.57013L52.9529 6.52165L52.8497 6.46078H52.8425L52.7806 6.42468L52.5392 6.28542L52.4794 6.24932L52.3969 6.20186C52.3226 6.15853 52.2483 6.11521 52.1741 6.07395L52.1524 6.0626C51.6562 5.78512 51.1497 5.51794 50.6401 5.26418L50.6061 5.24664H50.6009L50.5896 5.24148C50.4782 5.18268 50.3657 5.12801 50.2502 5.0754L49.95 4.93202L49.9232 4.91964L49.9057 4.91138H49.8984H49.8912C49.5364 4.74324 49.2114 4.60192 48.8968 4.46472H48.8885H48.8813H48.8741H48.8659C48.7906 4.43068 48.7153 4.3987 48.6379 4.36157L48.6059 4.34919L48.5832 4.33887L48.447 4.28213L48.3016 4.22333L48.2335 4.19548C47.8962 4.05932 47.6146 3.94998 47.365 3.85611L47.2123 3.79937L47.1916 3.79214L47.0318 3.73232C46.6047 3.57758 46.1591 3.42285 45.7124 3.28359H45.7072H45.7021L45.6804 3.27637C45.5958 3.24851 45.5102 3.22273 45.4256 3.19694L45.1636 3.11648L45.0078 3.06903C44.8139 3.01229 44.6293 2.95968 44.4518 2.91017H44.4405H44.4343L44.3621 2.89056L44.2465 2.85962L44.2228 2.8524L44.1888 2.84208C43.8205 2.73893 43.445 2.65434 43.0685 2.56769C42.8467 2.51611 42.626 2.46453 42.4021 2.41914C42.0266 2.33971 41.6512 2.25925 41.2674 2.19117C41.1261 2.16641 40.9868 2.14165 40.8455 2.11896H40.8383H40.829C40.6897 2.0942 40.5484 2.07151 40.4071 2.05088L40.2111 2.022L39.9656 1.98486C39.5626 1.92915 39.1579 1.87999 38.7514 1.83735C37.9675 1.75586 37.1773 1.70118 36.3871 1.67126C35.9477 1.65476 35.5072 1.64444 35.0678 1.64444C34.3271 1.64444 33.5844 1.67126 32.8437 1.71768C32.7653 1.71768 32.688 1.72491 32.6096 1.73006C31.7915 1.7868 30.9756 1.87139 30.1689 1.98383L29.7356 2.04778H29.7243L0.346609 31.2058L0.343508 31.2202Z" fill="white" style="mix-blend-mode:color"/>
<path d="M69.5579 41.8607V41.8339V41.806C69.5651 41.7565 69.5723 41.7028 69.5785 41.6575V41.6461V41.6275V41.6069C69.5878 41.543 69.5991 41.4769 69.6064 41.413V41.3697L69.6136 41.3263C69.6136 41.3057 69.6187 41.2851 69.6229 41.2665L69.6497 41.0478L69.6703 40.8972C69.6889 40.7518 69.7044 40.6166 69.7198 40.4846V40.466C69.7353 40.336 69.7477 40.2133 69.759 40.0895C69.7694 39.9863 69.7797 39.8832 69.7869 39.7914V39.7862L69.7962 39.6913C69.8034 39.6222 69.8096 39.5541 69.8137 39.485V39.4582V39.4314C69.823 39.3427 69.8292 39.2539 69.8343 39.1663V39.1528V39.1302C69.8457 39.0022 69.855 38.8671 69.8622 38.7175V38.7082C69.8715 38.571 69.8787 38.4369 69.8869 38.3049V38.2657V38.211V38.1564C69.8942 38.045 69.8983 37.9325 69.9024 37.819C69.9076 37.6664 69.9127 37.522 69.9158 37.3765V37.3579V37.2919C69.9158 37.1888 69.9158 37.0856 69.9158 36.9825V36.8638V36.8452C69.9158 36.7545 69.9158 36.6647 69.9158 36.576C69.9158 36.4873 69.9158 36.3852 69.9158 36.2934V36.2861V36.1954C69.8169 29.5711 67.1159 23.2517 62.3962 18.6025C57.6765 13.9533 51.3172 11.3475 44.6922 11.3483C43.1631 11.3487 41.6371 11.4868 40.1327 11.7609C46.699 15.7249 51.4278 22.1285 53.2844 29.5704C55.141 37.0123 53.9743 44.8867 50.0395 51.4705C46.1048 58.0544 39.7223 62.8116 32.2888 64.7014C24.8552 66.5911 16.9757 65.4595 10.3744 61.5541L10.3816 61.5613L10.4022 61.5799L10.4208 61.5985C10.4409 61.6203 10.4623 61.641 10.4848 61.6604L10.5549 61.7285C10.6117 61.7852 10.6684 61.8399 10.7262 61.8945L10.7354 61.9038L10.7468 61.9141C10.8407 62.0049 10.9531 62.1122 11.0563 62.2112L11.0738 62.2246L11.0882 62.2391C11.1594 62.3072 11.2316 62.3752 11.3049 62.4454L11.31 62.4505L11.3172 62.4557C11.4431 62.5723 11.572 62.6868 11.7041 62.8023L11.7123 62.8075L11.7195 62.8147L11.9754 63.0406L11.9919 63.053L12.0486 63.1025H12.0538L12.3024 63.3171L12.3529 63.3604L12.3643 63.3717C12.4313 63.4285 12.4984 63.4852 12.5706 63.5399L12.5974 63.5605L12.6222 63.5832C12.681 63.6337 12.747 63.6863 12.8202 63.7451L12.845 63.7637L12.8677 63.7823C12.9203 63.8277 12.9708 63.871 13.0234 63.9081L13.041 63.9215L13.0554 63.9339C13.2421 64.0845 13.4361 64.2351 13.632 64.3847C13.6733 64.4188 13.7166 64.4507 13.7579 64.4879C13.7992 64.525 13.8538 64.5611 13.9033 64.5972C13.9312 64.6178 13.958 64.6364 13.9828 64.657L14.0302 64.6911L14.2654 64.8664L14.3387 64.9191L14.4573 65.0036L14.4717 65.015L14.4893 65.0263C14.546 65.0697 14.6058 65.1109 14.6646 65.1532L14.7286 65.1986C14.872 65.3018 15.0185 65.4049 15.1649 65.5081L15.1783 65.5153L15.1918 65.5246C15.2557 65.57 15.3217 65.6133 15.3857 65.6566L15.4352 65.6886L15.5972 65.7918L15.7684 65.9063C15.8551 65.963 15.9448 66.0228 16.0376 66.0796C16.1305 66.1363 16.2202 66.1961 16.3089 66.2529H16.5318L16.9289 66.6314C16.9887 66.6696 17.0517 66.7067 17.1136 66.7428C17.2342 66.814 17.357 66.8862 17.4787 66.9492L17.4901 66.9564L17.5014 66.9636C17.5974 67.0203 17.6933 67.0729 17.7923 67.1276C18.3081 67.4196 18.8321 67.696 19.3562 67.9529C19.4727 68.0117 19.5883 68.0674 19.7028 68.122L19.7533 68.1489C19.8626 68.1994 19.9699 68.252 20.0793 68.3026C20.4094 68.4563 20.7467 68.612 21.0758 68.7492H21.083H21.0902L21.3367 68.8524C21.3615 68.8617 21.3873 68.873 21.4162 68.8864L21.7463 69.0226C22.0155 69.1319 22.3074 69.2454 22.6128 69.3599H22.6231H22.6324C22.7263 69.396 22.8212 69.4311 22.9171 69.4631H22.9305H22.9418C23.3885 69.6271 23.831 69.7725 24.2571 69.9118L24.2725 69.9169H24.286C24.3726 69.9469 24.4572 69.9737 24.5438 69.9995H24.5573H24.5686C24.6986 70.0407 24.8286 70.081 24.9585 70.1202L25.0679 70.1521L25.5331 70.2842L25.7735 70.3502H25.792C26.7565 70.6101 27.7386 70.8288 28.7062 71.0001H28.7175H28.7289C28.8454 71.0207 28.9723 71.0434 29.1301 71.0702H29.1394H29.1467C29.3034 71.0971 29.4324 71.1177 29.5521 71.1342H29.5706H29.5892C29.7254 71.1569 29.8626 71.1755 30.0018 71.194H30.0132C33.2641 71.6464 36.562 71.6464 39.8129 71.194L39.847 71.1889C39.977 71.1703 40.1049 71.1528 40.2338 71.1321H40.2524H40.2658L69.5197 41.8793C69.5579 41.8937 69.5579 41.8823 69.5579 41.8607Z" fill="white" style="mix-blend-mode:color"/>
<path d="M232.322 13.7568H236.25L245.088 36.5191H241.546L238.951 29.6098H229.2L226.64 36.5191H223.273L232.322 13.7568ZM238.109 27.2599L234.251 16.9835H233.935L230.077 27.2599H238.109Z" fill="white" style="mix-blend-mode:color"/>
<path d="M210.789 16.1418H203.073V13.7568H221.907V16.1418H214.226V36.5191H210.789V16.1418Z" fill="white" style="mix-blend-mode:color"/>
<path d="M195.895 13.7568H199.297V36.5191H195.895V13.7568Z" fill="white" style="mix-blend-mode:color"/>
<path d="M182.485 36.8699C180.544 36.8699 178.23 36.6829 175.541 36.3087V33.4678C178.253 34.0524 180.638 34.3447 182.696 34.3447C184.426 34.3447 185.688 34.1576 186.483 33.7835C187.278 33.386 187.676 32.6612 187.676 31.609V28.6628C187.676 27.6808 187.395 26.991 186.834 26.5935C186.273 26.1961 185.291 25.9973 183.888 25.9973H181.222C179.001 25.9973 177.423 25.553 176.488 24.6645C175.552 23.776 175.085 22.3965 175.085 20.5259V18.7021C175.085 17.4629 175.354 16.4575 175.891 15.6859C176.453 14.9143 177.376 14.3414 178.662 13.9673C179.972 13.5932 181.76 13.4061 184.028 13.4061C185.548 13.4061 187.501 13.5347 189.885 13.7919V16.3523C187.22 15.9548 185.186 15.756 183.783 15.756C181.608 15.756 180.17 15.9665 179.469 16.3873C178.744 16.8316 178.382 17.5681 178.382 18.5969V21.1923C178.382 21.9873 178.662 22.5718 179.223 22.946C179.808 23.2967 180.802 23.4721 182.205 23.4721H184.94C186.507 23.4721 187.723 23.6591 188.588 24.0332C189.476 24.4073 190.096 24.9802 190.447 25.7518C190.821 26.5 191.008 27.5171 191.008 28.8031V30.4516C191.008 32.0649 190.704 33.3392 190.096 34.2745C189.511 35.2098 188.599 35.8762 187.36 36.2737C186.121 36.6712 184.496 36.8699 182.485 36.8699Z" fill="white" style="mix-blend-mode:color"/>
<path d="M166.645 13.7568H170.047V36.5191H166.645V13.7568Z" fill="white" style="mix-blend-mode:color"/>
<path d="M144.484 13.7568H152.481C154.492 13.7568 156.058 13.8854 157.181 14.1426C158.326 14.3764 159.156 14.809 159.671 15.4403C160.209 16.0716 160.477 16.9952 160.477 18.2111V22.1392C160.477 23.4954 159.916 24.5476 158.794 25.2958C157.695 26.0207 156.292 26.3831 154.585 26.3831L161.88 36.5191H157.707L151.183 26.8039H147.886V36.5191H144.484V13.7568ZM152.34 24.5593C154.024 24.5593 155.228 24.3605 155.953 23.963C156.701 23.5422 157.075 22.7939 157.075 21.7184V18.5618C157.075 16.8549 155.602 16.0015 152.656 16.0015H147.886V24.5593H152.34Z" fill="white" style="mix-blend-mode:color"/>
<path d="M129.588 36.8699C123.229 36.8699 120.049 34.8123 120.049 30.6971V19.9297C120.049 15.5806 123.229 13.4061 129.588 13.4061C136.018 13.4061 139.233 15.569 139.233 19.8946V30.6971C139.233 32.895 138.345 34.4733 136.568 35.4319C134.791 36.3906 132.464 36.8699 129.588 36.8699ZM129.659 34.5902C133.844 34.5902 135.937 33.2808 135.937 30.662V19.8245C135.937 17.0186 133.832 15.6157 129.623 15.6157C127.589 15.6157 126.023 15.9314 124.924 16.5627C123.848 17.194 123.31 18.2813 123.31 19.8245V30.662C123.31 33.2808 125.426 34.5902 129.659 34.5902Z" fill="white" style="mix-blend-mode:color"/>
<path d="M90.4705 13.7568H95.556L102.851 32.6962L102.956 32.7313L109.866 13.7568H114.776V36.5191H111.795V17.2641H111.619L104.289 36.5191H101.238L93.6972 17.2641H93.5218V36.5191H90.4705V13.7568Z" fill="white" style="mix-blend-mode:color"/>
<path d="M204.028 53.0305H205.606V54.0651C205.77 53.2584 206.699 52.8551 208.394 52.8551C209.481 52.8551 210.241 53.0538 210.674 53.4513C211.118 53.8371 211.34 54.4509 211.34 55.2927V61.5181H209.762V55.3803C209.762 55.1582 209.744 54.977 209.709 54.8367C209.674 54.6964 209.604 54.5561 209.499 54.4158C209.265 54.1236 208.745 53.9774 207.938 53.9774C207.319 53.9774 206.839 54.0242 206.5 54.1177C206.173 54.1996 205.939 54.3398 205.799 54.5386C205.67 54.7373 205.606 55.0179 205.606 55.3803V61.5181H204.028V53.0305Z" fill="white" style="mix-blend-mode:color"/>
<path d="M197.656 61.6935C196.907 61.6935 196.346 61.6642 195.972 61.6058C195.598 61.559 195.224 61.448 194.85 61.2726C194.464 61.0972 194.183 60.8166 194.008 60.4308C193.833 60.0334 193.745 59.5014 193.745 58.835V55.8889C193.745 55.3628 193.809 54.901 193.938 54.5035C194.066 54.106 194.236 53.7962 194.446 53.5741C194.622 53.3753 194.885 53.2234 195.235 53.1181C195.598 53.0012 195.966 52.9252 196.34 52.8902C196.761 52.8668 197.2 52.8551 197.656 52.8551C198.263 52.8551 198.719 52.8726 199.023 52.9077C199.339 52.9311 199.672 52.9895 200.023 53.0831C200.385 53.1883 200.666 53.3461 200.865 53.5566C201.063 53.767 201.233 54.071 201.373 54.4684C201.502 54.8776 201.566 55.3511 201.566 55.8889V58.835C201.566 59.8288 201.338 60.5536 200.882 61.0095C200.695 61.1966 200.426 61.3427 200.076 61.448C199.725 61.5532 199.362 61.6233 198.988 61.6584C198.544 61.6818 198.1 61.6935 197.656 61.6935ZM197.656 60.6588C198.147 60.6588 198.503 60.6471 198.725 60.6237C198.947 60.6004 199.164 60.5361 199.374 60.4308C199.585 60.3373 199.731 60.1853 199.812 59.9749C199.906 59.7528 199.953 59.4488 199.953 59.063V55.6259C199.953 55.0998 199.888 54.7198 199.76 54.486C199.631 54.2405 199.409 54.0826 199.093 54.0125C198.79 53.9307 198.31 53.8897 197.656 53.8897C197.001 53.8897 196.516 53.9307 196.2 54.0125C195.896 54.0826 195.68 54.2405 195.551 54.486C195.423 54.7198 195.358 55.0998 195.358 55.6259V59.063C195.358 59.4488 195.399 59.7528 195.481 59.9749C195.575 60.1853 195.726 60.3373 195.937 60.4308C196.147 60.5361 196.364 60.6004 196.586 60.6237C196.808 60.6471 197.164 60.6588 197.656 60.6588Z" fill="white" style="mix-blend-mode:color"/>
<path d="M189.745 49.9615H191.323V51.61H189.745V49.9615ZM189.745 53.0304H191.323V61.5181H189.745V53.0304Z" fill="white" style="mix-blend-mode:color"/>
<path d="M186.249 61.6935C185.524 61.6935 184.957 61.6175 184.548 61.4655C184.139 61.3018 183.841 61.0329 183.654 60.6588C183.478 60.273 183.391 59.7352 183.391 59.0455V54.0651H181.497V53.0305H183.391V50.4H184.987V53.0305H188.02V54.0651H184.987V59.1331C184.987 59.554 185.033 59.8697 185.127 60.0801C185.232 60.2905 185.407 60.4425 185.653 60.5361C185.91 60.6179 186.278 60.6588 186.758 60.6588C186.91 60.6588 187.331 60.6121 188.02 60.5185V61.5532C187.424 61.6467 186.834 61.6935 186.249 61.6935Z" fill="white" style="mix-blend-mode:color"/>
<path d="M175.866 61.6935C175.059 61.6935 174.434 61.6175 173.99 61.4655C173.557 61.3135 173.242 61.0446 173.043 60.6588C172.856 60.273 172.762 59.7177 172.762 58.9929C172.762 58.3499 172.85 57.853 173.025 57.5023C173.212 57.1398 173.522 56.8826 173.955 56.7307C174.399 56.5787 175.024 56.5027 175.831 56.5027H178.374V55.1524C178.374 54.8367 178.31 54.597 178.181 54.4334C178.064 54.258 177.859 54.1353 177.567 54.0651C177.287 53.995 176.872 53.9599 176.322 53.9599C175.445 53.9599 174.475 54.03 173.411 54.1703V53.0129C174.568 52.9077 175.615 52.8551 176.55 52.8551C177.532 52.8551 178.257 52.9311 178.725 53.0831C179.192 53.2234 179.514 53.4747 179.689 53.8371C179.864 54.1996 179.952 54.7607 179.952 55.5206V61.5181H178.426V60.7114C178.298 61.3661 177.444 61.6935 175.866 61.6935ZM176.129 60.6588C176.702 60.6588 177.187 60.6179 177.585 60.5361C178.111 60.4308 178.374 60.1853 178.374 59.7995V57.4847H175.936C175.434 57.4847 175.071 57.5256 174.849 57.6075C174.627 57.6776 174.481 57.8179 174.411 58.0283C174.34 58.2388 174.305 58.5778 174.305 59.0455C174.305 59.4663 174.346 59.7937 174.428 60.0275C174.51 60.2496 174.656 60.4133 174.867 60.5185C175.077 60.6121 175.393 60.6588 175.814 60.6588H176.129Z" fill="white" style="mix-blend-mode:color"/>
<path d="M167.105 53.0305H168.596V54.4158C168.596 54.1469 168.712 53.8956 168.946 53.6618C169.18 53.4163 169.478 53.2234 169.841 53.0831C170.203 52.9311 170.56 52.8551 170.91 52.8551H171.682V54.2054H170.805C170.057 54.2054 169.513 54.3048 169.174 54.5035C168.847 54.6906 168.683 55.0355 168.683 55.5382V61.5181H167.105V53.0305Z" fill="white" style="mix-blend-mode:color"/>
<path d="M160.733 61.6935C159.985 61.6935 159.424 61.6642 159.049 61.6058C158.675 61.559 158.301 61.448 157.927 61.2726C157.541 61.0972 157.261 60.8166 157.085 60.4308C156.91 60.0334 156.822 59.5014 156.822 58.835V55.8889C156.822 55.3628 156.887 54.901 157.015 54.5035C157.144 54.106 157.313 53.7962 157.524 53.5741C157.699 53.3753 157.962 53.2234 158.313 53.1181C158.675 53.0012 159.044 52.9252 159.418 52.8902C159.839 52.8668 160.277 52.8551 160.733 52.8551C161.341 52.8551 161.797 52.8726 162.101 52.9077C162.416 52.9311 162.75 52.9895 163.1 53.0831C163.463 53.1883 163.743 53.3461 163.942 53.5566C164.141 53.767 164.31 54.071 164.451 54.4684C164.579 54.8776 164.644 55.3511 164.644 55.8889V58.835C164.644 59.8288 164.416 60.5536 163.96 61.0095C163.773 61.1966 163.504 61.3427 163.153 61.448C162.802 61.5532 162.44 61.6233 162.066 61.6584C161.621 61.6818 161.177 61.6935 160.733 61.6935ZM160.733 60.6588C161.224 60.6588 161.58 60.6471 161.803 60.6237C162.025 60.6004 162.241 60.5361 162.451 60.4308C162.662 60.3373 162.808 60.1853 162.89 59.9749C162.983 59.7528 163.03 59.4488 163.03 59.063V55.6259C163.03 55.0998 162.966 54.7198 162.837 54.486C162.709 54.2405 162.487 54.0826 162.171 54.0125C161.867 53.9307 161.388 53.8897 160.733 53.8897C160.078 53.8897 159.593 53.9307 159.277 54.0125C158.973 54.0826 158.757 54.2405 158.629 54.486C158.5 54.7198 158.436 55.0998 158.436 55.6259V59.063C158.436 59.4488 158.477 59.7528 158.558 59.9749C158.652 60.1853 158.804 60.3373 159.014 60.4308C159.225 60.5361 159.441 60.6004 159.663 60.6237C159.885 60.6471 160.242 60.6588 160.733 60.6588Z" fill="white" style="mix-blend-mode:color"/>
<path d="M146.983 53.0305H148.543V53.9424H148.561C148.69 53.2175 149.654 52.8551 151.454 52.8551C152.53 52.8551 153.343 53.0831 153.892 53.539C154.442 53.9833 154.716 54.5561 154.716 55.2576V58.7473C154.716 59.2501 154.64 59.6885 154.488 60.0626C154.348 60.4367 154.161 60.729 153.927 60.9394C153.717 61.1381 153.424 61.296 153.05 61.4129C152.688 61.5298 152.325 61.6058 151.963 61.6409C151.636 61.6759 151.238 61.6935 150.771 61.6935C150.256 61.6935 149.783 61.635 149.35 61.5181C148.929 61.3895 148.666 61.2083 148.561 60.9745V65.1657H146.983V53.0305ZM150.806 60.6237C151.414 60.6237 151.875 60.5828 152.191 60.501C152.518 60.4075 152.752 60.2438 152.892 60.01C153.033 59.7761 153.103 59.4196 153.103 58.9402V55.8188C153.103 55.2927 153.033 54.901 152.892 54.6438C152.752 54.3866 152.518 54.2171 152.191 54.1353C151.875 54.0417 151.408 53.995 150.788 53.995C150.168 53.995 149.707 54.0417 149.403 54.1353C149.099 54.2171 148.882 54.3866 148.754 54.6438C148.625 54.8893 148.561 55.281 148.561 55.8188V58.9402C148.561 59.4196 148.625 59.7761 148.754 60.01C148.894 60.2438 149.122 60.4075 149.438 60.501C149.753 60.5828 150.209 60.6237 150.806 60.6237Z" fill="white" style="mix-blend-mode:color"/>
<path d="M140.835 53.0305H142.325V54.4158C142.325 54.1469 142.442 53.8956 142.676 53.6618C142.91 53.4163 143.208 53.2234 143.57 53.0831C143.933 52.9311 144.289 52.8551 144.64 52.8551H145.412V54.2054H144.535C143.787 54.2054 143.243 54.3048 142.904 54.5035C142.577 54.6906 142.413 55.0355 142.413 55.5382V61.5181H140.835V53.0305Z" fill="white" style="mix-blend-mode:color"/>
<path d="M134.463 61.6935C133.714 61.6935 133.153 61.6642 132.779 61.6058C132.405 61.559 132.031 61.448 131.657 61.2726C131.271 61.0972 130.99 60.8166 130.815 60.4308C130.64 60.0334 130.552 59.5014 130.552 58.835V55.8889C130.552 55.3628 130.616 54.901 130.745 54.5035C130.874 54.106 131.043 53.7962 131.253 53.5741C131.429 53.3753 131.692 53.2234 132.043 53.1181C132.405 53.0012 132.773 52.9252 133.147 52.8902C133.568 52.8668 134.007 52.8551 134.463 52.8551C135.071 52.8551 135.527 52.8726 135.83 52.9077C136.146 52.9311 136.479 52.9895 136.83 53.0831C137.192 53.1883 137.473 53.3461 137.672 53.5566C137.871 53.767 138.04 54.071 138.18 54.4684C138.309 54.8776 138.373 55.3511 138.373 55.8889V58.835C138.373 59.8288 138.145 60.5536 137.689 61.0095C137.502 61.1966 137.233 61.3427 136.883 61.448C136.532 61.5532 136.17 61.6233 135.795 61.6584C135.351 61.6818 134.907 61.6935 134.463 61.6935ZM134.463 60.6588C134.954 60.6588 135.31 60.6471 135.532 60.6237C135.754 60.6004 135.971 60.5361 136.181 60.4308C136.392 60.3373 136.538 60.1853 136.62 59.9749C136.713 59.7528 136.76 59.4488 136.76 59.063V55.6259C136.76 55.0998 136.696 54.7198 136.567 54.486C136.438 54.2405 136.216 54.0826 135.901 54.0125C135.597 53.9307 135.117 53.8897 134.463 53.8897C133.808 53.8897 133.323 53.9307 133.007 54.0125C132.703 54.0826 132.487 54.2405 132.358 54.486C132.23 54.7198 132.165 55.0998 132.165 55.6259V59.063C132.165 59.4488 132.206 59.7528 132.288 59.9749C132.382 60.1853 132.534 60.3373 132.744 60.4308C132.954 60.5361 133.171 60.6004 133.393 60.6237C133.615 60.6471 133.972 60.6588 134.463 60.6588Z" fill="white" style="mix-blend-mode:color"/>
<path d="M125.511 61.6934C122.319 61.6934 120.724 60.6646 120.724 58.607V53.2058C120.724 51.0313 122.319 49.944 125.511 49.944C126.598 49.944 127.639 50.0551 128.633 50.2772V51.5398C127.51 51.2592 126.481 51.1189 125.546 51.1189C125.09 51.1189 124.693 51.1482 124.354 51.2066C124.015 51.2534 123.687 51.3411 123.372 51.4697C122.694 51.7619 122.355 52.3348 122.355 53.1882V58.5193C122.355 59.8287 123.442 60.4834 125.616 60.4834C126.552 60.4834 127.58 60.3431 128.703 60.0625V61.3602C127.709 61.5824 126.645 61.6934 125.511 61.6934Z" fill="white" style="mix-blend-mode:color"/>
</svg>
