<svg width="247" height="75" viewBox="0 0 247 75" fill="none" xmlns="http://www.w3.org/2000/svg">
<path d="M0.343508 31.5957V31.6287L0.336292 31.672C0.327008 31.7318 0.317722 31.7927 0.30947 31.8535V31.8639C0.30947 31.8752 0.30947 31.8876 0.30947 31.8989C0.30947 31.935 0.299155 31.9701 0.295028 32.0021L0.280587 32.097V32.1135V32.1414V32.1558V32.1702V32.1775V32.2063V32.228V32.2424C0.266145 32.3569 0.250672 32.4735 0.23623 32.5911C0.221789 32.7087 0.212501 32.7974 0.200122 32.9006C0.200122 32.9408 0.190838 32.98 0.186711 33.0202V33.0316C0.17227 33.1574 0.158866 33.2864 0.145456 33.4122C0.136172 33.5061 0.12895 33.6031 0.118635 33.699V33.7083L0.109348 33.8032C0.109348 33.8403 0.103156 33.8785 0.100061 33.9156C0.0969664 33.9528 0.0928459 33.9951 0.0897512 34.0353C0.0897512 34.0559 0.0897512 34.0765 0.0897512 34.0972C0.0897512 34.1178 0.0845901 34.158 0.0814954 34.189L0.0742785 34.3035V34.3571C0.0629314 34.4871 0.0536469 34.6233 0.046426 34.779V34.7883C0.046426 34.8543 0.0392029 34.9214 0.0361083 34.9874C0.0330136 35.0534 0.0278536 35.1267 0.0257905 35.1937V35.2216C0.0257905 35.2298 0.0257905 35.237 0.0257905 35.2443C0.0257905 35.2515 0.0257905 35.2752 0.0257905 35.2917V35.3165V35.3381C0.0257905 35.4165 0.0185747 35.4949 0.0165116 35.5733C0.0165116 35.6063 0.0165116 35.6394 0.0165116 35.6765C0.0113538 35.8199 0.00722593 35.954 0.00516282 36.0891C0.00516282 36.1097 0.00516282 36.1324 0.00516282 36.1551V36.2181C0.00516282 36.3315 0 36.4419 0 36.5554V36.7617C0 36.7957 0 36.8298 0 36.8648C0 36.8999 0 36.9133 0 36.9381C0 36.9628 0 36.9866 0 37.0103C0 37.034 0 37.0774 0 37.1135V37.2249V37.3187C0.0999551 43.9426 2.80137 50.2614 7.52081 54.9104C12.2402 59.5594 18.599 62.1655 25.2236 62.1658C26.2775 62.1644 27.3303 62.0979 28.3761 61.9667C28.8475 61.9079 29.3168 61.8419 29.7831 61.7604C25.0306 58.8771 21.2011 54.6957 18.7454 49.7088C18.6 49.4117 18.4607 49.1125 18.3256 48.8123C18.3112 48.7793 18.2947 48.7473 18.2792 48.7143C16.26 44.1545 15.4491 39.1514 15.9246 34.1872C16.4001 29.223 18.1461 24.4649 20.9942 20.3713C21.7712 19.2587 22.6246 18.2016 23.5484 17.2075C28.0524 12.3634 34.0762 9.20344 40.6217 8.25115C47.1673 7.29886 53.8418 8.61141 59.5394 11.9713C59.5374 11.9685 59.535 11.9661 59.5322 11.9641L59.4084 11.8424C59.3537 11.7887 59.297 11.7392 59.2413 11.6825L59.1897 11.633L59.1763 11.6216V11.6165L59.168 11.6072C59.1206 11.5618 59.0649 11.5123 59.0153 11.4648C58.9658 11.4174 58.9122 11.3617 58.8534 11.3132L58.8472 11.306L58.842 11.2998L58.8286 11.2884L58.8008 11.2626C58.7389 11.2038 58.678 11.1481 58.6161 11.0924L58.6048 11.0811L58.5233 11.0079L58.4831 10.9717C58.3933 10.8903 58.3046 10.8098 58.2169 10.7314C58.1292 10.653 58.0168 10.556 57.9198 10.4714L57.8239 10.3899C57.7568 10.3322 57.6908 10.2744 57.6176 10.2166L57.4814 10.1032L57.4082 10.0413L57.3535 9.99693L57.3256 9.9732C57.2442 9.90512 57.1668 9.84117 57.0884 9.77927L57.077 9.76895H57.0719L57.0647 9.76277L57.0554 9.75554C56.9966 9.70603 56.9368 9.65961 56.878 9.61216L56.8728 9.607C56.684 9.45433 56.486 9.29753 56.2889 9.14899H56.2838C56.2312 9.1067 56.1806 9.06749 56.1239 9.02623L56.0589 8.97672L56.0197 8.94681L55.9929 8.92617L55.9846 8.91998L55.9774 8.91483H55.9723L55.9619 8.90864L55.8516 8.82611L55.8113 8.7962L55.6607 8.68479L55.6133 8.65075L55.5276 8.58886L55.4678 8.54553C55.409 8.50117 55.3492 8.45991 55.2894 8.41762L55.2471 8.38667L55.2306 8.37532L55.2151 8.36397L54.7777 8.0545H54.7715C54.7055 8.00912 54.6405 7.96373 54.5735 7.91937L54.526 7.88637H54.5209C54.4177 7.82241 54.3238 7.75639 54.2238 7.6914L54.2073 7.68108L54.2 7.67593L54.1907 7.67077L54.1278 7.62951L53.9143 7.49128L53.903 7.48406L53.8926 7.47684C53.7895 7.40669 53.6791 7.34067 53.5698 7.27053L53.5584 7.26433L53.544 7.25505C53.4346 7.18491 53.3232 7.11579 53.2108 7.04874L53.0344 6.94558L52.9529 6.8971L52.8497 6.83624H52.8425L52.7806 6.80014L52.5392 6.66087L52.4794 6.62477L52.3969 6.57732C52.3226 6.53399 52.2483 6.49067 52.1741 6.4494L52.1524 6.43806C51.6562 6.16057 51.1497 5.8934 50.6401 5.63964L50.6061 5.6221H50.6009L50.5896 5.61694C50.4782 5.55814 50.3657 5.50347 50.2502 5.45086L49.95 5.30748L49.9232 5.2951L49.9057 5.28684H49.8984H49.8912C49.5364 5.1187 49.2114 4.97737 48.8968 4.84018H48.8885H48.8813H48.8741H48.8659C48.7906 4.80614 48.7153 4.77416 48.6379 4.73702L48.6059 4.72464L48.5832 4.71433L48.447 4.65759L48.3016 4.59879L48.2335 4.57094C47.8962 4.43477 47.6146 4.32543 47.365 4.23156L47.2123 4.17483L47.1917 4.1676L47.0318 4.10777C46.6047 3.95304 46.1591 3.79831 45.7124 3.65905H45.7072H45.7021L45.6804 3.65182C45.5958 3.62397 45.5102 3.59819 45.4256 3.5724L45.1636 3.49193L45.0078 3.44449C44.8139 3.38775 44.6293 3.33514 44.4518 3.28563H44.4405H44.4343L44.3621 3.26602L44.2465 3.23508L44.2228 3.22786L44.1888 3.21754C43.8205 3.11439 43.445 3.0298 43.0685 2.94315C42.8467 2.89157 42.626 2.83999 42.4021 2.7946C42.0266 2.71517 41.6512 2.63471 41.2674 2.56662C41.1261 2.54187 40.9868 2.51711 40.8455 2.49442H40.8383H40.829C40.6897 2.46966 40.5484 2.44697 40.4071 2.42634L40.2111 2.39746L39.9656 2.36032C39.5626 2.30461 39.1579 2.25544 38.7514 2.21281C37.9675 2.13131 37.1773 2.07664 36.3871 2.04672C35.9477 2.03022 35.5072 2.0199 35.0678 2.0199C34.3271 2.0199 33.5844 2.04672 32.8437 2.09314C32.7653 2.09314 32.688 2.10036 32.6096 2.10552C31.7915 2.16226 30.9756 2.24685 30.1689 2.35929L29.7356 2.42324H29.7243L0.346609 31.5812L0.343508 31.5957Z" fill="#1E4AA4"/>
<path d="M69.558 42.2361V42.2093V42.1815C69.5652 42.1319 69.5724 42.0783 69.5786 42.0329V42.0216V42.003V41.9824C69.5879 41.9184 69.5993 41.8524 69.6065 41.7884V41.7451L69.6137 41.7018C69.6137 41.6812 69.6189 41.6605 69.623 41.642L69.6498 41.4233L69.6704 41.2727C69.689 41.1272 69.7045 40.9921 69.72 40.86V40.8415C69.7354 40.7115 69.7478 40.5887 69.7592 40.465C69.7695 40.3618 69.7798 40.2586 69.787 40.1668V40.1617L69.7963 40.0668C69.8035 39.9977 69.8097 39.9296 69.8138 39.8605V39.8336V39.8068C69.8231 39.7181 69.8293 39.6294 69.8345 39.5417V39.5283V39.5056C69.8458 39.3777 69.8551 39.2426 69.8623 39.093V39.0837C69.8716 38.9465 69.8788 38.8124 69.8871 38.6804V38.6412V38.5865V38.5318C69.8943 38.4204 69.8984 38.308 69.9025 38.1945C69.9077 38.0418 69.9129 37.8974 69.916 37.752V37.7334V37.6674C69.916 37.5642 69.916 37.4611 69.916 37.3579V37.2393V37.2207C69.916 37.1299 69.916 37.0402 69.916 36.9515C69.916 36.8628 69.916 36.7606 69.916 36.6688V36.6616V36.5708C69.8171 29.9466 67.116 23.6272 62.3963 18.9779C57.6767 14.3287 51.3173 11.723 44.6923 11.7237C43.1632 11.7242 41.6372 11.8623 40.1329 12.1363C46.6991 16.1004 51.4279 22.5039 53.2845 29.9459C55.1411 37.3878 53.9744 45.2621 50.0396 51.846C46.1049 58.4298 39.7225 63.1871 32.2889 65.0768C24.8553 66.9666 16.9758 65.835 10.3745 61.9296L10.3817 61.9368L10.4024 61.9554L10.4209 61.9739C10.441 61.9958 10.4624 62.0165 10.4849 62.0358L10.555 62.1039C10.6118 62.1607 10.6685 62.2153 10.7263 62.27L10.7356 62.2793L10.7469 62.2896C10.8408 62.3804 10.9532 62.4876 11.0564 62.5867L11.0739 62.6001L11.0884 62.6145C11.1595 62.6826 11.2317 62.7507 11.305 62.8208L11.3101 62.826L11.3174 62.8312C11.4432 62.9477 11.5722 63.0622 11.7042 63.1778L11.7124 63.1829L11.7197 63.1901L11.9755 63.416L11.992 63.4284L12.0487 63.4779H12.0539L12.3025 63.6925L12.353 63.7358L12.3644 63.7472C12.4314 63.8039 12.4985 63.8607 12.5707 63.9153L12.5975 63.9359L12.6223 63.9586C12.6811 64.0092 12.7471 64.0618 12.8203 64.1206L12.8451 64.1392L12.8678 64.1577C12.9204 64.2031 12.9709 64.2465 13.0235 64.2836L13.0411 64.297L13.0555 64.3094C13.2422 64.46 13.4362 64.6106 13.6322 64.7602C13.6734 64.7942 13.7168 64.8262 13.758 64.8633C13.7993 64.9005 13.8539 64.9366 13.9035 64.9727C13.9313 64.9933 13.9581 65.0119 13.9829 65.0325L14.0303 65.0665L14.2655 65.2419L14.3388 65.2945L14.4574 65.3791L14.4719 65.3904L14.4894 65.4018C14.5461 65.4451 14.606 65.4864 14.6648 65.5287L14.7287 65.5741C14.8721 65.6772 15.0186 65.7804 15.1651 65.8835L15.1785 65.8908L15.1919 65.9C15.2558 65.9454 15.3219 65.9888 15.3858 66.0321L15.4353 66.0641L15.5973 66.1672L15.7685 66.2817C15.8552 66.3384 15.9449 66.3983 16.0378 66.455C16.1306 66.5117 16.2203 66.5716 16.3091 66.6283H16.5319L16.929 67.0069C16.9889 67.0451 17.0518 67.0822 17.1137 67.1183C17.2344 67.1895 17.3571 67.2617 17.4788 67.3246L17.4902 67.3318L17.5015 67.3391C17.5975 67.3958 17.6934 67.4484 17.7924 67.5031C18.3082 67.795 18.8322 68.0715 19.3563 68.3283C19.4728 68.3871 19.5884 68.4428 19.7029 68.4975L19.7534 68.5243C19.8628 68.5749 19.9701 68.6275 20.0794 68.678C20.4095 68.8317 20.7468 68.9875 21.0759 69.1247H21.0831H21.0903L21.3369 69.2278C21.3616 69.2371 21.3874 69.2485 21.4163 69.2619L21.7464 69.3981C22.0156 69.5074 22.3076 69.6209 22.6129 69.7354H22.6232H22.6325C22.7264 69.7715 22.8213 69.8065 22.9172 69.8385H22.9306H22.942C23.3886 70.0025 23.8312 70.148 24.2572 70.2873L24.2727 70.2924H24.2861C24.3727 70.3223 24.4573 70.3491 24.544 70.3749H24.5574H24.5687C24.6987 70.4162 24.8287 70.4564 24.9587 70.4956L25.068 70.5276L25.5332 70.6596L25.7736 70.7257H25.7922C26.7567 70.9856 27.7387 71.2043 28.7063 71.3755H28.7176H28.729C28.8456 71.3962 28.9724 71.4189 29.1303 71.4457H29.1396H29.1468C29.3036 71.4725 29.4325 71.4931 29.5522 71.5096H29.5707H29.5893C29.7255 71.5323 29.8627 71.5509 30.0019 71.5695H30.0133C33.2642 72.0219 36.5621 72.0219 39.8131 71.5695L39.8471 71.5643C39.9771 71.5457 40.105 71.5282 40.2339 71.5076H40.2525H40.2659L69.5198 42.2547C69.558 42.2691 69.558 42.2578 69.558 42.2361Z" fill="#E5EBF0"/>
<path d="M232.322 14.1323H236.25L245.089 36.8946H241.546L238.951 29.9852H229.201L226.64 36.8946H223.273L232.322 14.1323ZM238.109 27.6353L234.251 17.359H233.936L230.078 27.6353H238.109Z" fill="#06235E"/>
<path d="M210.789 16.5172H203.073V14.1323H221.907V16.5172H214.226V36.8946H210.789V16.5172Z" fill="#06235E"/>
<path d="M195.895 14.1323H199.297V36.8946H195.895V14.1323Z" fill="#06235E"/>
<path d="M182.485 37.2454C180.545 37.2454 178.23 37.0583 175.541 36.6842V33.8433C178.253 34.4278 180.638 34.7201 182.696 34.7201C184.426 34.7201 185.689 34.5331 186.484 34.159C187.279 33.7615 187.676 33.0366 187.676 31.9844V29.0383C187.676 28.0563 187.396 27.3665 186.834 26.969C186.273 26.5715 185.291 26.3728 183.888 26.3728H181.223C179.001 26.3728 177.423 25.9285 176.488 25.04C175.553 24.1515 175.085 22.7719 175.085 20.9014V19.0776C175.085 17.8383 175.354 16.8329 175.892 16.0613C176.453 15.2897 177.376 14.7169 178.662 14.3427C179.972 13.9686 181.761 13.7816 184.029 13.7816C185.548 13.7816 187.501 13.9102 189.886 14.1674V16.7277C187.22 16.3302 185.186 16.1315 183.783 16.1315C181.609 16.1315 180.171 16.3419 179.469 16.7628C178.744 17.207 178.382 17.9436 178.382 18.9724V21.5678C178.382 22.3628 178.662 22.9473 179.224 23.3214C179.808 23.6721 180.802 23.8475 182.205 23.8475H184.94C186.507 23.8475 187.723 24.0346 188.588 24.4087C189.477 24.7828 190.096 25.3556 190.447 26.1273C190.821 26.8755 191.008 27.8926 191.008 29.1786V30.827C191.008 32.4404 190.704 33.7147 190.096 34.65C189.512 35.5852 188.6 36.2516 187.36 36.6491C186.121 37.0466 184.496 37.2454 182.485 37.2454Z" fill="#06235E"/>
<path d="M166.645 14.1323H170.047V36.8946H166.645V14.1323Z" fill="#06235E"/>
<path d="M144.484 14.1323H152.481C154.492 14.1323 156.058 14.2609 157.181 14.5181C158.326 14.7519 159.157 15.1845 159.671 15.8158C160.209 16.4471 160.478 17.3707 160.478 18.5865V22.5147C160.478 23.8709 159.916 24.923 158.794 25.6713C157.695 26.3961 156.292 26.7585 154.585 26.7585L161.881 36.8946H157.707L151.183 27.1794H147.886V36.8946H144.484V14.1323ZM152.341 24.9347C154.024 24.9347 155.228 24.736 155.953 24.3385C156.701 23.9176 157.076 23.1694 157.076 22.0938V18.9373C157.076 17.2304 155.602 16.3769 152.656 16.3769H147.886V24.9347H152.341Z" fill="#06235E"/>
<path d="M129.589 37.2454C123.229 37.2454 120.049 35.1878 120.049 31.0725V20.3051C120.049 15.9561 123.229 13.7816 129.589 13.7816C136.019 13.7816 139.234 15.9444 139.234 20.2701V31.0725C139.234 33.2704 138.345 34.8487 136.568 35.8074C134.791 36.766 132.465 37.2454 129.589 37.2454ZM129.659 34.9656C133.844 34.9656 135.937 33.6562 135.937 31.0375V20.1999C135.937 17.3941 133.832 15.9912 129.624 15.9912C127.59 15.9912 126.023 16.3068 124.924 16.9381C123.848 17.5695 123.311 18.6567 123.311 20.1999V31.0375C123.311 33.6562 125.427 34.9656 129.659 34.9656Z" fill="#06235E"/>
<path d="M90.4707 14.1323H95.5563L102.851 33.0717L102.957 33.1067L109.866 14.1323H114.776V36.8946H111.795V17.6396H111.62L104.289 36.8946H101.238L93.6974 17.6396H93.522V36.8946H90.4707V14.1323Z" fill="#06235E"/>
<path d="M204.027 53.4059H205.606V54.4406C205.769 53.6339 206.699 53.2306 208.394 53.2306C209.481 53.2306 210.241 53.4293 210.674 53.8268C211.118 54.2126 211.34 54.8264 211.34 55.6681V61.8936H209.762V55.7558C209.762 55.5337 209.744 55.3525 209.709 55.2122C209.674 55.0719 209.604 54.9316 209.499 54.7913C209.265 54.499 208.745 54.3529 207.938 54.3529C207.318 54.3529 206.839 54.3996 206.5 54.4932C206.173 54.575 205.939 54.7153 205.799 54.9141C205.67 55.1128 205.606 55.3934 205.606 55.7558V61.8936H204.027V53.4059Z" fill="#06235E"/>
<path d="M197.656 62.0689C196.908 62.0689 196.346 62.0397 195.972 61.9812C195.598 61.9345 195.224 61.8234 194.85 61.6481C194.464 61.4727 194.184 61.1921 194.008 60.8063C193.833 60.4088 193.745 59.8769 193.745 59.2105V56.2644C193.745 55.7383 193.809 55.2765 193.938 54.879C194.067 54.4815 194.236 54.1717 194.447 53.9495C194.622 53.7508 194.885 53.5988 195.236 53.4936C195.598 53.3767 195.966 53.3007 196.341 53.2656C196.761 53.2422 197.2 53.2306 197.656 53.2306C198.264 53.2306 198.72 53.2481 199.024 53.2832C199.339 53.3065 199.672 53.365 200.023 53.4585C200.386 53.5637 200.666 53.7216 200.865 53.932C201.064 54.1424 201.233 54.4464 201.373 54.8439C201.502 55.2531 201.566 55.7266 201.566 56.2644V59.2105C201.566 60.2042 201.338 60.9291 200.882 61.385C200.695 61.5721 200.427 61.7182 200.076 61.8234C199.725 61.9286 199.363 61.9988 198.989 62.0339C198.544 62.0572 198.1 62.0689 197.656 62.0689ZM197.656 61.0343C198.147 61.0343 198.503 61.0226 198.725 60.9992C198.948 60.9758 199.164 60.9115 199.374 60.8063C199.585 60.7128 199.731 60.5608 199.813 60.3504C199.906 60.1282 199.953 59.8243 199.953 59.4385V56.0013C199.953 55.4752 199.889 55.0953 199.76 54.8614C199.632 54.6159 199.409 54.4581 199.094 54.388C198.79 54.3061 198.31 54.2652 197.656 54.2652C197.001 54.2652 196.516 54.3061 196.2 54.388C195.896 54.4581 195.68 54.6159 195.551 54.8614C195.423 55.0953 195.358 55.4752 195.358 56.0013V59.4385C195.358 59.8243 195.399 60.1282 195.481 60.3504C195.575 60.5608 195.727 60.7128 195.937 60.8063C196.148 60.9115 196.364 60.9758 196.586 60.9992C196.808 61.0226 197.165 61.0343 197.656 61.0343Z" fill="#06235E"/>
<path d="M189.745 50.337H191.323V51.9854H189.745V50.337ZM189.745 53.4059H191.323V61.8935H189.745V53.4059Z" fill="#06235E"/>
<path d="M186.249 62.0689C185.524 62.0689 184.957 61.9929 184.548 61.841C184.139 61.6773 183.841 61.4084 183.654 61.0343C183.478 60.6485 183.391 60.1107 183.391 59.4209V54.4406H181.497V53.4059H183.391V50.7754H184.986V53.4059H188.02V54.4406H184.986V59.5086C184.986 59.9295 185.033 60.2451 185.127 60.4556C185.232 60.666 185.407 60.818 185.653 60.9115C185.91 60.9934 186.278 61.0343 186.758 61.0343C186.91 61.0343 187.33 60.9875 188.02 60.894V61.9286C187.424 62.0222 186.834 62.0689 186.249 62.0689Z" fill="#06235E"/>
<path d="M175.866 62.0689C175.059 62.0689 174.434 61.9929 173.99 61.841C173.557 61.689 173.242 61.4201 173.043 61.0343C172.856 60.6485 172.762 60.0932 172.762 59.3683C172.762 58.7253 172.85 58.2284 173.025 57.8777C173.212 57.5153 173.522 57.2581 173.955 57.1061C174.399 56.9541 175.024 56.8781 175.831 56.8781H178.374V55.5278C178.374 55.2122 178.31 54.9725 178.181 54.8088C178.064 54.6335 177.859 54.5107 177.567 54.4406C177.287 54.3704 176.872 54.3353 176.322 54.3353C175.445 54.3353 174.475 54.4055 173.411 54.5458V53.3884C174.568 53.2832 175.615 53.2306 176.55 53.2306C177.532 53.2306 178.257 53.3065 178.725 53.4585C179.192 53.5988 179.514 53.8502 179.689 54.2126C179.864 54.575 179.952 55.1362 179.952 55.8961V61.8936H178.426V61.0869C178.298 61.7416 177.444 62.0689 175.866 62.0689ZM176.129 61.0343C176.702 61.0343 177.187 60.9934 177.585 60.9115C178.111 60.8063 178.374 60.5608 178.374 60.175V57.8602H175.936C175.434 57.8602 175.071 57.9011 174.849 57.9829C174.627 58.0531 174.481 58.1934 174.411 58.4038C174.34 58.6142 174.305 58.9533 174.305 59.4209C174.305 59.8418 174.346 60.1691 174.428 60.403C174.51 60.6251 174.656 60.7888 174.867 60.894C175.077 60.9875 175.393 61.0343 175.814 61.0343H176.129Z" fill="#06235E"/>
<path d="M167.105 53.4059H168.596V54.7913C168.596 54.5224 168.712 54.271 168.946 54.0372C169.18 53.7917 169.478 53.5988 169.841 53.4585C170.203 53.3065 170.56 53.2306 170.91 53.2306H171.682V54.5809H170.805C170.057 54.5809 169.513 54.6802 169.174 54.879C168.847 55.066 168.683 55.4109 168.683 55.9136V61.8936H167.105V53.4059Z" fill="#06235E"/>
<path d="M160.733 62.0689C159.985 62.0689 159.424 62.0397 159.049 61.9812C158.675 61.9345 158.301 61.8234 157.927 61.6481C157.541 61.4727 157.261 61.1921 157.085 60.8063C156.91 60.4088 156.822 59.8769 156.822 59.2105V56.2644C156.822 55.7383 156.887 55.2765 157.015 54.879C157.144 54.4815 157.313 54.1717 157.524 53.9495C157.699 53.7508 157.962 53.5988 158.313 53.4936C158.675 53.3767 159.044 53.3007 159.418 53.2656C159.839 53.2422 160.277 53.2306 160.733 53.2306C161.341 53.2306 161.797 53.2481 162.101 53.2832C162.416 53.3065 162.75 53.365 163.1 53.4585C163.463 53.5637 163.743 53.7216 163.942 53.932C164.141 54.1424 164.31 54.4464 164.451 54.8439C164.579 55.2531 164.644 55.7266 164.644 56.2644V59.2105C164.644 60.2042 164.416 60.9291 163.96 61.385C163.773 61.5721 163.504 61.7182 163.153 61.8234C162.802 61.9286 162.44 61.9988 162.066 62.0339C161.621 62.0572 161.177 62.0689 160.733 62.0689ZM160.733 61.0343C161.224 61.0343 161.58 61.0226 161.803 60.9992C162.025 60.9758 162.241 60.9115 162.451 60.8063C162.662 60.7128 162.808 60.5608 162.89 60.3504C162.983 60.1282 163.03 59.8243 163.03 59.4385V56.0013C163.03 55.4752 162.966 55.0953 162.837 54.8614C162.709 54.6159 162.487 54.4581 162.171 54.388C161.867 54.3061 161.388 54.2652 160.733 54.2652C160.078 54.2652 159.593 54.3061 159.277 54.388C158.973 54.4581 158.757 54.6159 158.629 54.8614C158.5 55.0953 158.436 55.4752 158.436 56.0013V59.4385C158.436 59.8243 158.477 60.1282 158.558 60.3504C158.652 60.5608 158.804 60.7128 159.014 60.8063C159.225 60.9115 159.441 60.9758 159.663 60.9992C159.885 61.0226 160.242 61.0343 160.733 61.0343Z" fill="#06235E"/>
<path d="M146.983 53.4059H148.544V54.3178H148.561C148.69 53.593 149.654 53.2306 151.455 53.2306C152.53 53.2306 153.343 53.4585 153.892 53.9145C154.442 54.3587 154.716 54.9316 154.716 55.633V59.1228C154.716 59.6255 154.641 60.0639 154.489 60.438C154.348 60.8121 154.161 61.1044 153.927 61.3149C153.717 61.5136 153.425 61.6714 153.051 61.7883C152.688 61.9053 152.326 61.9812 151.963 62.0163C151.636 62.0514 151.238 62.0689 150.771 62.0689C150.256 62.0689 149.783 62.0105 149.35 61.8936C148.929 61.765 148.666 61.5838 148.561 61.3499V65.5411H146.983V53.4059ZM150.806 60.9992C151.414 60.9992 151.876 60.9583 152.191 60.8764C152.519 60.7829 152.752 60.6192 152.893 60.3854C153.033 60.1516 153.103 59.795 153.103 59.3157V56.1942C153.103 55.6681 153.033 55.2765 152.893 55.0193C152.752 54.7621 152.519 54.5926 152.191 54.5107C151.876 54.4172 151.408 54.3704 150.788 54.3704C150.169 54.3704 149.707 54.4172 149.403 54.5107C149.099 54.5926 148.883 54.7621 148.754 55.0193C148.625 55.2648 148.561 55.6564 148.561 56.1942V59.3157C148.561 59.795 148.625 60.1516 148.754 60.3854C148.894 60.6192 149.122 60.7829 149.438 60.8764C149.754 60.9583 150.21 60.9992 150.806 60.9992Z" fill="#06235E"/>
<path d="M140.834 53.4059H142.325V54.7913C142.325 54.5224 142.442 54.271 142.676 54.0372C142.91 53.7917 143.208 53.5988 143.57 53.4585C143.933 53.3065 144.289 53.2306 144.64 53.2306H145.411V54.5809H144.535C143.786 54.5809 143.243 54.6802 142.904 54.879C142.576 55.066 142.413 55.4109 142.413 55.9136V61.8936H140.834V53.4059Z" fill="#06235E"/>
<path d="M134.463 62.0689C133.715 62.0689 133.153 62.0397 132.779 61.9812C132.405 61.9345 132.031 61.8234 131.657 61.6481C131.271 61.4727 130.991 61.1921 130.815 60.8063C130.64 60.4088 130.552 59.8769 130.552 59.2105V56.2644C130.552 55.7383 130.617 55.2765 130.745 54.879C130.874 54.4815 131.043 54.1717 131.254 53.9495C131.429 53.7508 131.692 53.5988 132.043 53.4936C132.405 53.3767 132.774 53.3007 133.148 53.2656C133.569 53.2422 134.007 53.2306 134.463 53.2306C135.071 53.2306 135.527 53.2481 135.831 53.2832C136.146 53.3065 136.48 53.365 136.83 53.4585C137.193 53.5637 137.473 53.7216 137.672 53.932C137.871 54.1424 138.04 54.4464 138.181 54.8439C138.309 55.2531 138.374 55.7266 138.374 56.2644V59.2105C138.374 60.2042 138.146 60.9291 137.69 61.385C137.503 61.5721 137.234 61.7182 136.883 61.8234C136.532 61.9286 136.17 61.9988 135.796 62.0339C135.351 62.0572 134.907 62.0689 134.463 62.0689ZM134.463 61.0343C134.954 61.0343 135.31 61.0226 135.533 60.9992C135.755 60.9758 135.971 60.9115 136.181 60.8063C136.392 60.7128 136.538 60.5608 136.62 60.3504C136.713 60.1282 136.76 59.8243 136.76 59.4385V56.0013C136.76 55.4752 136.696 55.0953 136.567 54.8614C136.439 54.6159 136.217 54.4581 135.901 54.388C135.597 54.3061 135.118 54.2652 134.463 54.2652C133.808 54.2652 133.323 54.3061 133.007 54.388C132.703 54.4581 132.487 54.6159 132.359 54.8614C132.23 55.0953 132.166 55.4752 132.166 56.0013V59.4385C132.166 59.8243 132.207 60.1282 132.288 60.3504C132.382 60.5608 132.534 60.7128 132.744 60.8063C132.955 60.9115 133.171 60.9758 133.393 60.9992C133.615 61.0226 133.972 61.0343 134.463 61.0343Z" fill="#06235E"/>
<path d="M125.511 62.0689C122.319 62.0689 120.724 61.0401 120.724 58.9825V53.5812C120.724 51.4067 122.319 50.3195 125.511 50.3195C126.598 50.3195 127.639 50.4305 128.633 50.6527V51.9153C127.51 51.6347 126.481 51.4944 125.546 51.4944C125.09 51.4944 124.693 51.5236 124.354 51.5821C124.015 51.6288 123.687 51.7165 123.372 51.8451C122.694 52.1374 122.355 52.7103 122.355 53.5637V58.8948C122.355 60.2042 123.442 60.8589 125.616 60.8589C126.552 60.8589 127.58 60.7186 128.703 60.438V61.7357C127.709 61.9578 126.645 62.0689 125.511 62.0689Z" fill="#06235E"/>
</svg>
