<svg width="150" height="150" viewBox="0 0 150 150" fill="none" xmlns="http://www.w3.org/2000/svg">
<rect width="150" height="150" rx="75" fill="#F5F8FB"/>
<path fill-rule="evenodd" clip-rule="evenodd" d="M108.5 70.8315V79.1666L99.3952 80.7108C98.779 83.336 97.6941 85.9594 96.3048 88.2766L101.554 95.6856L95.6867 101.552L88.2773 96.3017C85.9582 97.6928 83.3365 98.772 80.7149 99.3919L79.1669 108.5H70.8331L69.2908 99.3919C66.5085 98.772 64.0418 97.6928 61.7227 96.3017L54.1583 101.552L48.2932 95.6856L53.6971 88.2766C52.1547 85.9594 51.0698 83.3342 50.4518 80.7108L41.5 79.1666V70.8315L50.4518 69.2874C51.0698 66.509 52.1547 64.0387 53.6971 61.7216L48.2932 54.3144L54.1583 48.2928L61.7227 53.6964C64.0418 52.3072 66.5085 51.228 69.2908 50.6081L70.8331 41.5H79.1669L80.7149 50.6081C83.3365 51.2261 85.9582 52.3054 88.2773 53.6964L95.6867 48.2928L101.554 54.3144L96.3048 61.7216C97.6922 64.0387 98.7771 66.509 99.3952 69.2874L108.5 70.8315ZM91.08 74.999C91.08 66.1701 83.9501 58.92 75.0805 58.92C66.0479 58.92 58.92 66.172 58.92 74.999C58.92 83.8299 66.0479 91.08 75.0805 91.08C83.9501 91.08 91.08 83.828 91.08 74.999Z" fill="#1E4AA4"/>
</svg>
