<svg width="150" height="150" viewBox="0 0 150 150" fill="none" xmlns="http://www.w3.org/2000/svg">
<rect width="150" height="150" rx="75" fill="#F5F8FB"/>
<path fill-rule="evenodd" clip-rule="evenodd" d="M62.8282 66.0393H65.6849C66.594 66.0393 67.3445 66.6405 67.3445 67.5441V71.6123C67.3445 72.5177 66.594 73.2683 65.6849 73.2683H62.8282C61.9227 73.2683 61.1721 72.5177 61.1721 71.6123V67.5441C61.1721 66.6405 61.9227 66.0393 62.8282 66.0393ZM54.5388 74.622H57.4028C58.3046 74.622 59.0589 75.3744 59.0589 76.2835V80.3444C59.0589 81.0986 58.3046 81.8565 57.4028 81.8565H54.5388C53.6352 81.8565 52.8847 81.0986 52.8847 80.3444V76.2835C52.8847 75.3744 53.6352 74.622 54.5388 74.622ZM62.8282 74.622H65.6849C66.594 74.622 67.3445 75.3744 67.3445 76.2835V80.3444C67.3445 81.0986 66.594 81.8565 65.6849 81.8565H62.8282C61.9227 81.8565 61.1721 81.0986 61.1721 80.3444V76.2835C61.1721 75.3744 61.9227 74.622 62.8282 74.622ZM54.5388 66.0393H57.4028C58.3046 66.0393 59.0589 66.6405 59.0589 67.5441V71.6123C59.0589 72.5177 58.3046 73.2683 57.4028 73.2683H54.5388C53.6352 73.2683 52.8847 72.5177 52.8847 71.6123V67.5441C52.8847 66.6405 53.6352 66.0393 54.5388 66.0393ZM46.8599 57.6006H73.373V107.16H46.8599V57.6006Z" fill="#1E4AA4"/>
<path fill-rule="evenodd" clip-rule="evenodd" d="M93.102 50.9745H95.9677C96.8677 50.9745 97.622 51.7269 97.622 52.6305V56.5475C97.622 57.4511 96.8677 58.2017 95.9677 58.2017H93.102C92.1983 58.2017 91.4477 57.4511 91.4477 56.5475V52.6305C91.4477 51.7269 92.1983 50.9745 93.102 50.9745ZM84.8217 59.7138H87.6802C88.5838 59.7138 89.3416 60.315 89.3416 61.2168V65.285C89.3416 66.1886 88.5838 66.7898 87.6802 66.7898H84.8217C83.9181 66.7898 83.162 66.1886 83.162 65.285V61.2168C83.1602 60.315 83.9181 59.7138 84.8217 59.7138ZM93.102 59.7138H95.9677C96.8677 59.7138 97.622 60.315 97.622 61.2168V65.285C97.622 66.1886 96.8677 66.7898 95.9677 66.7898H93.102C92.1983 66.7898 91.4477 66.1886 91.4477 65.285V61.2168C91.4477 60.315 92.1983 59.7138 93.102 59.7138ZM84.8217 50.9745H87.6802C88.5838 50.9745 89.3416 51.7269 89.3416 52.6305V56.5475C89.3416 57.4511 88.5838 58.2017 87.6802 58.2017H84.8217C83.9181 58.2017 83.162 57.4511 83.162 56.5475V52.6305C83.1602 51.7269 83.9181 50.9745 84.8217 50.9745ZM77.1372 42.84H103.649V105.804H77.1372V42.84Z" fill="#1E4AA4"/>
</svg>
