<svg width="150" height="150" viewBox="0 0 150 150" fill="none" xmlns="http://www.w3.org/2000/svg">
<rect width="150" height="150" rx="75" fill="#F5F8FB"/>
<path fill-rule="evenodd" clip-rule="evenodd" d="M45.522 101.499H54.0976V70.4659H52.3468V64.4178H56L90.9206 41.6598L91.0781 41.5L91.2374 41.6598C91.2374 41.9774 91.3948 42.4547 91.5542 42.7723C92.5044 45.8002 92.9805 46.9109 92.1857 50.8877L88.5344 53.2784V73.0126H90.602C91.0781 73.0126 91.5542 73.1704 91.869 73.488C92.347 73.8056 92.5044 74.4408 92.5044 74.9182V79.6939C92.5044 80.1694 92.347 80.6467 91.869 80.9701C91.5542 81.4455 91.0781 81.6072 90.602 81.6072H79.331C78.8568 81.6072 78.3807 81.4455 78.064 80.9701C77.5898 80.6467 77.4304 80.1694 77.4304 79.6939V74.9182C77.4304 74.4408 77.5898 73.8056 78.064 73.488C78.3807 73.1704 78.8568 73.0126 79.331 73.0126H81.3929V57.8944L62.821 69.9886L62.1875 70.4639L61.0778 71.1012V101.497H103.14V108.5H45.52V101.499H45.522Z" fill="#1E4AA4"/>
</svg>
