<svg width="512" height="512" viewBox="0 0 512 512" fill="none" xmlns="http://www.w3.org/2000/svg">
<rect width="512" height="512" fill="#06235E"/>
<path d="M51.8356 225.834V226.019L51.7953 226.261C51.7434 226.596 51.6914 226.936 51.6453 227.276V227.334C51.6453 227.397 51.6453 227.467 51.6453 227.53C51.6453 227.732 51.5876 227.928 51.5645 228.107L51.4838 228.638V228.73V228.886V228.967V229.047V229.088V229.249V229.37V229.451C51.403 230.091 51.3165 230.743 51.2357 231.401C51.155 232.058 51.103 232.555 51.0338 233.131C51.0338 233.356 50.9819 233.576 50.9588 233.801V233.864C50.878 234.568 50.8031 235.289 50.7281 235.993C50.6762 236.518 50.6358 237.06 50.5781 237.596V237.648L50.5262 238.179C50.5262 238.387 50.4916 238.6 50.4743 238.808C50.4569 239.015 50.4339 239.252 50.4166 239.477C50.4166 239.592 50.4166 239.708 50.4166 239.823C50.4166 239.938 50.3877 240.163 50.3704 240.336L50.3301 240.977V241.277C50.2666 242.003 50.2147 242.765 50.1743 243.636V243.688C50.1743 244.057 50.1339 244.432 50.1166 244.801C50.0993 245.17 50.0705 245.58 50.0589 245.955V246.111C50.0589 246.157 50.0589 246.197 50.0589 246.238C50.0589 246.278 50.0589 246.411 50.0589 246.503V246.641V246.762C50.0589 247.201 50.0186 247.639 50.007 248.078C50.007 248.262 50.007 248.447 50.007 248.655C49.9782 249.456 49.9551 250.206 49.9436 250.962C49.9436 251.077 49.9436 251.204 49.9436 251.331V251.683C49.9436 252.318 49.9147 252.935 49.9147 253.569V254.723C49.9147 254.913 49.9147 255.104 49.9147 255.3C49.9147 255.496 49.9147 255.571 49.9147 255.709C49.9147 255.848 49.9147 255.981 49.9147 256.113C49.9147 256.246 49.9147 256.488 49.9147 256.69V257.313V257.838C50.4737 294.879 65.5802 330.215 91.9716 356.212C118.363 382.21 153.921 396.783 190.967 396.785C196.861 396.777 202.748 396.405 208.596 395.672C211.232 395.343 213.857 394.974 216.464 394.518C189.888 378.394 168.473 355.011 154.741 327.124C153.927 325.463 153.149 323.79 152.393 322.111C152.312 321.927 152.22 321.748 152.133 321.563C140.842 296.064 136.307 268.087 138.966 240.326C141.625 212.566 151.389 185.958 167.316 163.067C171.661 156.845 176.433 150.934 181.599 145.375C206.786 118.286 240.471 100.615 277.074 95.29C313.678 89.9648 351.002 97.3046 382.863 116.094C382.852 116.078 382.839 116.064 382.823 116.053L382.131 115.372C381.825 115.073 381.508 114.796 381.196 114.478L380.908 114.201L380.833 114.138V114.109L380.787 114.057C380.521 113.803 380.21 113.527 379.933 113.261C379.656 112.996 379.356 112.684 379.027 112.413L378.993 112.373L378.964 112.338L378.889 112.275L378.733 112.131C378.387 111.802 378.047 111.49 377.7 111.179L377.637 111.115L377.181 110.706L376.956 110.504C376.454 110.048 375.958 109.598 375.468 109.16C374.978 108.721 374.349 108.179 373.807 107.706L373.27 107.25C372.895 106.927 372.526 106.604 372.116 106.281L371.355 105.647L370.945 105.301L370.64 105.053L370.484 104.92C370.028 104.539 369.596 104.182 369.157 103.835L369.094 103.778H369.065L369.025 103.743L368.973 103.703C368.644 103.426 368.309 103.166 367.98 102.901L367.952 102.872C366.896 102.018 365.788 101.141 364.687 100.311H364.658C364.364 100.074 364.081 99.8551 363.764 99.6244L363.4 99.3475L363.181 99.1802L363.031 99.0648L362.985 99.0302L362.945 99.0014H362.916L362.858 98.9668L362.241 98.5053L362.016 98.338L361.174 97.715L360.908 97.5246L360.429 97.1785L360.095 96.9362C359.766 96.6882 359.431 96.4574 359.097 96.2209L358.86 96.0479L358.768 95.9844L358.682 95.921L356.236 94.1904H356.201C355.832 93.9366 355.468 93.6828 355.093 93.4347L354.828 93.2501H354.799C354.222 92.8925 353.698 92.5233 353.138 92.1599L353.046 92.1022L353.005 92.0733L352.953 92.0445L352.602 91.8138L351.407 91.0408L351.344 91.0004L351.286 90.96C350.709 90.5678 350.092 90.1986 349.481 89.8063L349.417 89.7717L349.336 89.7198C348.725 89.3275 348.102 88.941 347.473 88.5661L346.487 87.9892L346.031 87.7181L345.454 87.3777H345.414L345.068 87.1759L343.718 86.3971L343.383 86.1952L342.922 85.9298C342.507 85.6876 342.091 85.4453 341.676 85.2145L341.555 85.1511C338.78 83.5994 335.948 82.1053 333.098 80.6863L332.908 80.5882H332.879L332.815 80.5593C332.192 80.2305 331.564 79.9248 330.918 79.6306L329.239 78.8288L329.089 78.7596L328.991 78.7134H328.95H328.91C326.926 77.7731 325.109 76.9828 323.349 76.2156H323.303H323.263H323.222H323.176C322.755 76.0253 322.334 75.8465 321.901 75.6388L321.723 75.5696L321.596 75.5119L320.834 75.1946L320.021 74.8658L319.64 74.71C317.754 73.9486 316.179 73.3372 314.783 72.8122L313.929 72.4949L313.814 72.4545L312.92 72.12C310.532 71.2547 308.04 70.3894 305.542 69.6107H305.513H305.484L305.363 69.5703C304.89 69.4145 304.411 69.2703 303.938 69.1261L302.473 68.6762L301.602 68.4108C300.517 68.0935 299.485 67.7994 298.493 67.5225H298.429H298.395L297.991 67.4128L297.345 67.2398L297.212 67.1994L297.022 67.1417C294.962 66.5649 292.863 66.0919 290.757 65.6073C289.517 65.3189 288.282 65.0304 287.031 64.7766C284.931 64.3324 282.831 63.8825 280.685 63.5018C279.895 63.3633 279.116 63.2249 278.326 63.098H278.285H278.233C277.455 62.9595 276.664 62.8326 275.874 62.7173L274.778 62.5558L273.405 62.3481C271.152 62.0366 268.888 61.7616 266.616 61.5232C262.232 61.0675 257.813 60.7617 253.394 60.5944C250.937 60.5021 248.474 60.4444 246.016 60.4444C241.874 60.4444 237.721 60.5944 233.579 60.854C233.141 60.854 232.708 60.8944 232.27 60.9232C227.695 61.2405 223.132 61.7135 218.621 62.3423L216.199 62.6999H216.135L51.853 225.753L51.8356 225.834Z" fill="white"/>
<path d="M438.887 285.337V285.187V285.031C438.928 284.754 438.968 284.454 439.003 284.2V284.137V284.033V283.918C439.055 283.56 439.118 283.191 439.158 282.833V282.591L439.199 282.349C439.199 282.233 439.228 282.118 439.251 282.014L439.401 280.791L439.516 279.949C439.62 279.136 439.706 278.38 439.793 277.641V277.538C439.879 276.811 439.949 276.124 440.012 275.432C440.07 274.855 440.127 274.278 440.168 273.765V273.736L440.22 273.206C440.26 272.819 440.295 272.438 440.318 272.052V271.902V271.752C440.37 271.256 440.404 270.76 440.433 270.269V270.194V270.067C440.497 269.352 440.549 268.596 440.589 267.76V267.708C440.641 266.941 440.681 266.191 440.727 265.453V265.233V264.928V264.622C440.768 263.999 440.791 263.37 440.814 262.736C440.843 261.882 440.872 261.074 440.889 260.261V260.157V259.788C440.889 259.211 440.889 258.634 440.889 258.057V257.394V257.29C440.889 256.782 440.889 256.281 440.889 255.784C440.889 255.288 440.889 254.717 440.889 254.204V254.164V253.656C440.336 216.613 425.231 181.274 398.839 155.275C372.446 129.276 336.884 114.705 299.837 114.709C291.286 114.712 282.752 115.484 274.34 117.017C311.059 139.184 337.502 174.993 347.885 216.609C358.267 258.224 351.743 302.258 329.739 339.076C307.736 375.893 272.045 402.496 230.476 413.064C188.906 423.631 144.844 417.303 107.929 395.464L107.969 395.504L108.085 395.608L108.188 395.712C108.301 395.834 108.42 395.95 108.546 396.058L108.938 396.439C109.256 396.756 109.573 397.062 109.896 397.368L109.948 397.419L110.011 397.477C110.536 397.985 111.165 398.585 111.742 399.138L111.84 399.213L111.921 399.294C112.319 399.675 112.723 400.056 113.132 400.448L113.161 400.477L113.201 400.506C113.905 401.157 114.626 401.798 115.365 402.444L115.411 402.473L115.451 402.513L116.882 403.776L116.974 403.846L117.291 404.122H117.32L118.71 405.322L118.993 405.565L119.056 405.628C119.431 405.945 119.806 406.263 120.21 406.568L120.36 406.684L120.499 406.811C120.827 407.093 121.197 407.387 121.606 407.716L121.745 407.82L121.871 407.924C122.166 408.178 122.448 408.42 122.742 408.628L122.841 408.703L122.921 408.772C123.965 409.614 125.05 410.456 126.146 411.293C126.377 411.483 126.619 411.662 126.85 411.87C127.08 412.077 127.386 412.279 127.663 412.481C127.819 412.596 127.969 412.7 128.107 412.816L128.373 413.006L129.688 413.987L130.097 414.281L130.761 414.754L130.841 414.817L130.94 414.881C131.257 415.123 131.591 415.354 131.92 415.59L132.278 415.844C133.08 416.421 133.899 416.998 134.718 417.575L134.793 417.615L134.868 417.667C135.226 417.921 135.595 418.163 135.952 418.405L136.229 418.584L137.135 419.161L138.093 419.801C138.577 420.119 139.079 420.453 139.598 420.77C140.117 421.088 140.619 421.422 141.115 421.74H142.361L144.582 423.857C144.917 424.07 145.269 424.278 145.615 424.48C146.29 424.878 146.976 425.281 147.657 425.633L147.72 425.674L147.784 425.714C148.32 426.031 148.857 426.326 149.41 426.631C152.295 428.264 155.225 429.81 158.156 431.246C158.807 431.575 159.453 431.886 160.094 432.192L160.376 432.342C160.988 432.625 161.588 432.919 162.199 433.202C164.045 434.061 165.932 434.932 167.772 435.7H167.812H167.852L169.231 436.276C169.37 436.328 169.514 436.392 169.675 436.467L171.521 437.228C173.027 437.84 174.659 438.474 176.367 439.114H176.424H176.476C177.001 439.316 177.532 439.512 178.069 439.691H178.144H178.207C180.705 440.608 183.179 441.422 185.562 442.201L185.648 442.229H185.723C186.208 442.397 186.681 442.547 187.166 442.691H187.241H187.304C188.031 442.922 188.758 443.147 189.484 443.366L190.096 443.545L192.698 444.283L194.042 444.652H194.145C199.539 446.106 205.031 447.329 210.442 448.286H210.505H210.568C211.22 448.402 211.93 448.529 212.812 448.679H212.864H212.905C213.782 448.829 214.503 448.944 215.172 449.036H215.276H215.379C216.141 449.163 216.908 449.267 217.687 449.371H217.75C235.93 451.901 254.372 451.901 272.551 449.371L272.742 449.342C273.469 449.238 274.184 449.14 274.905 449.025H275.009H275.084L438.674 285.441C438.887 285.521 438.887 285.458 438.887 285.337Z" fill="white"/>
</svg>
